:SAMPLES-PER-SECOND 30
:FULLY-SPECIFIED
:DEGREES
994
root  -52.5767 36.2536 2.61555 3.90271 -76.2606 -11.7517
RightUpLeg  -31.0646 -17.3113 4.80514
RightLeg  34.4688 -0.278392 -0.47526
RightFoot  3.25655 0.847597 -6.43678
RightToes  5.82063e-011 0 -3.6325e-017
Spine  18.6409 -4.62335 13.5764
Spine1  8.3633 -1.47889 -2.60894
HEad  -13.9863 -8.03618 0.260895
LeftShoulder1  1.37082 -0.959945 -24.49
LeftArm  -5.51159 -38.0127 -49.1435
LeftForeArm  11.3625 -33.7442 -6.85988
LeftHand  -0.203187 2.76187 8.58678
RightShoulder  0.325286 -2.12714 17.3562
RightArm  -9.33244 45.5382 40.1592
RightForeArm  -8.3375 27.3346 6.33058
RightHand  -0.62842 5.83663 -6.80957
LeftUpLeg  -8.76757 3.96668 5.6127
LeftLeg  73.6704 -1.3771 -4.48908
LeftFoot  10.1434 0.955103 -5.08722
LeftToes  1.54581e-011 7.46816e-011 -4.69922e-011
995
root  -53.309 36.3989 2.6991 5.46765 -77.9274 -12.0077
RightUpLeg  -31.7041 -16.842 5.2303
RightLeg  35.3031 0.712402 0.267418
RightFoot  1.93774 0.768413 -6.47474
RightToes  5.82063e-011 0 -3.6325e-017
Spine  20.2592 -4.10666 14.0407
Spine1  7.92285 -0.712313 -3.1054
HEad  -15.4506 -8.86352 0.952362
LeftShoulder1  1.54547 -1.79505 -22.8486
LeftArm  -6.87757 -42.4436 -49.8786
LeftForeArm  10.1555 -32.6665 -6.6453
LeftHand  -0.180411 3.18957 8.93224
RightShoulder  0.43401 -1.49372 15.0531
RightArm  -12.8837 50.5897 38.2807
RightForeArm  -11.1316 23.9248 5.60928
RightHand  -0.622503 5.75048 -6.79748
LeftUpLeg  -15.57 4.41107 5.24802
LeftLeg  77.8871 -1.35037 -6.04099
LeftFoot  4.89334 0.409969 -3.14658
LeftToes  1.54581e-011 7.46816e-011 -4.69922e-011
996
root  -53.9597 36.5452 2.82405 8.54132 -79.7672 -14.1401
RightUpLeg  -31.7556 -16.0508 5.71267
RightLeg  35.5725 1.55167 0.914956
RightFoot  0.862525 0.692104 -6.40843
RightToes  5.82063e-011 0 -3.6325e-017
Spine  22.1646 -3.83313 14.7545
Spine1  7.04811 -0.0868029 -3.77815
HEad  -16.0911 -9.37385 1.39975
LeftShoulder1  1.61818 -2.27009 -21.6716
LeftArm  -9.02096 -46.2354 -49.2823
LeftForeArm  9.15503 -32.2528 -6.5977
LeftHand  -0.139873 3.62689 8.37941
RightShoulder  0.564832 -0.597128 12.4361
RightArm  -16.1073 54.7692 36.952
RightForeArm  -13.6322 20.1602 4.37918
RightHand  -0.550976 5.8561 -5.99853
LeftUpLeg  -21.4798 4.42452 5.16238
LeftLeg  78.8475 -1.51062 -7.62749
LeftFoot  3.0863 0.498032 -4.10438
LeftToes  1.54581e-011 7.46816e-011 -4.69922e-011
997
root  -54.6184 36.7718 2.97471 12.2639 -81.8221 -17.2549
RightUpLeg  -31.0174 -14.8089 5.89682
RightLeg  35.1958 2.22087 1.40756
RightFoot  0.0864461 0.625747 -6.23294
RightToes  5.82063e-011 0 -3.6325e-017
Spine  23.9529 -3.67957 15.5624
Spine1  6.48442 0.64124 -5.37892
HEad  -16.7751 -10.2499 2.5845
LeftShoulder1  1.67357 -2.90247 -19.6489
LeftArm  -10.6109 -50.4642 -47.8074
LeftForeArm  6.67918 -30.5419 -6.30437
LeftHand  -0.158561 3.23413 7.90403
RightShoulder  0.650118 0.117897 10.8046
RightArm  -17.4739 58.5802 35.183
RightForeArm  -16.7263 16.7803 2.85966
RightHand  -0.463264 5.40613 -5.28988
LeftUpLeg  -26.0263 4.13977 5.30053
LeftLeg  76.838 -1.98902 -8.69855
LeftFoot  0.437062 0.573049 -5.58273
LeftToes  1.54581e-011 7.46816e-011 -4.69922e-011
998
root  -55.2543 36.9948 3.1706 15.6233 -83.4509 -19.7474
RightUpLeg  -30.6073 -14.0195 5.75283
RightLeg  34.8994 3.06972 2.0283
RightFoot  -0.773943 0.527146 -5.7492
RightToes  5.82063e-011 0 -3.6325e-017
Spine  24.9515 -3.63295 16.1986
Spine1  6.23968 1.1181 -7.00516
HEad  -17.4313 -10.4513 3.21771
LeftShoulder1  1.74184 -3.70373 -17.5339
LeftArm  -13.4752 -53.9861 -46.572
LeftForeArm  5.61966 -28.6994 -5.91235
LeftHand  -0.164118 3.17017 7.96659
RightShoulder  0.712237 0.885091 8.85685
RightArm  -18.8388 61.4929 33.2982
RightForeArm  -19.5475 13.3606 1.57409
RightHand  -0.398643 4.9105 -4.79027
LeftUpLeg  -30.0406 3.17889 5.38299
LeftLeg  72.4603 -2.58652 -8.2377
LeftFoot  -1.99671 0.512442 -6.08838
LeftToes  1.54581e-011 7.46816e-011 -4.69922e-011
999
root  -55.8581 37.1857 3.37318 18.6464 -85.0794 -22.304
RightUpLeg  -29.9162 -12.9507 5.28488
RightLeg  34.7729 3.55516 2.3791
RightFoot  -1.59222 0.456478 -5.46981
RightToes  5.82063e-011 0 -3.6325e-017
Spine  26.2439 -3.26887 15.8628
Spine1  5.7054 1.50915 -7.43921
HEad  -17.9041 -11.1024 3.92087
LeftShoulder1  1.83273 -4.49049 -16.1726
LeftArm  -16.6911 -57.2236 -44.5705
LeftForeArm  4.60336 -26.6344 -5.48557
LeftHand  -0.114522 3.89361 7.87229
RightShoulder  0.744207 1.61445 6.93819
RightArm  -20.8514 63.9256 30.3489
RightForeArm  -21.1569 9.72049 0.81383
RightHand  -0.286085 4.96309 -3.50041
LeftUpLeg  -32.6444 1.72058 5.9989
LeftLeg  66.2046 -3.52819 -8.09767
LeftFoot  -2.95099 0.427151 -5.58624
LeftToes  1.54581e-011 7.46816e-011 -4.69922e-011
1000
root  -56.441 37.395 3.63503 26.6354 -86.6706 -29.8885
RightUpLeg  -29.0528 -11.6249 4.74721
RightLeg  34.3424 3.94354 2.62736
RightFoot  -2.16876 0.397822 -5.13851
RightToes  5.82063e-011 0 -3.6325e-017
Spine  27.5561 -3.12508 15.9834
Spine1  4.76565 1.94555 -8.62272
HEad  -17.8164 -11.867 4.63959
LeftShoulder1  1.87785 -5.11687 -14.9657
LeftArm  -18.6562 -60.1808 -42.2501
LeftForeArm  2.41685 -24.0495 -5.01586
LeftHand  -0.0606266 4.82189 8.33012
RightShoulder  0.761572 2.19549 5.59706
RightArm  -22.7771 65.6952 27.9353
RightForeArm  -22.0986 6.52104 0.604504
RightHand  -0.157097 4.57206 -2.12024
LeftUpLeg  -34.1281 -0.339534 7.11574
LeftLeg  58.1782 -4.64649 -7.49502
LeftFoot  -3.47467 0.44321 -6.15123
LeftToes  1.54581e-011 7.46816e-011 -4.69922e-011
1001
root  -57.0088 37.5149 3.96343 53.0089 -87.8233 -55.7489
RightUpLeg  -28.6242 -10.6562 4.53123
RightLeg  34.3736 4.52872 3.05742
RightFoot  -2.79889 0.356628 -5.01908
RightToes  5.82063e-011 0 -3.6325e-017
Spine  27.82 -2.97547 16.7866
Spine1  5.05038 2.49838 -9.8038
HEad  -17.8967 -13.0767 5.76407
LeftShoulder1  1.92745 -6.17083 -12.8856
LeftArm  -22.3914 -61.8204 -40.5692
LeftForeArm  2.33515 -22.2681 -4.54924
LeftHand  -0.0427733 4.98145 6.92375
RightShoulder  0.736115 2.35848 4.68059
RightArm  -25.543 67.6185 24.739
RightForeArm  -22.8919 3.65311 0.359157
RightHand  -0.0648283 3.97921 -1.06501
LeftUpLeg  -34.7542 -3.25949 9.13875
LeftLeg  48.8772 -6.77706 -7.81722
LeftFoot  -4.47244 0.414451 -6.45332
LeftToes  1.54581e-011 7.46816e-011 -4.69922e-011
1002
root  -57.5509 37.7024 4.27021 101.647 -88.4948 -104.03
RightUpLeg  -27.8988 -9.69351 3.74858
RightLeg  34.0026 5.22656 3.5225
RightFoot  -3.30207 0.295473 -4.52019
RightToes  5.82063e-011 0 -3.6325e-017
Spine  28.806 -2.7746 15.7376
Spine1  4.52923 2.63409 -10.183
HEad  -17.8043 -13.1622 6.34723
LeftShoulder1  1.79903 -6.38525 -10.9766
LeftArm  -25.3116 -62.6673 -38.9094
LeftForeArm  2.74338 -20.4234 -3.82119
LeftHand  -0.0504045 4.90467 5.89205
RightShoulder  0.754373 2.72125 4.23155
RightArm  -26.5864 69.4977 23.5239
RightForeArm  -23.4076 1.38136 0.362441
RightHand  0.00937117 3.54932 -0.136563
LeftUpLeg  -34.2793 -8.37732 11.491
LeftLeg  38.3859 -9.9301 -7.98211
LeftFoot  -4.1122 0.421916 -6.28548
LeftToes  1.54581e-011 7.46816e-011 -4.69922e-011
1003
root  -58.1172 37.7902 4.63857 156.127 -87.2177 -158.29
RightUpLeg  -27.4515 -8.13835 2.96138
RightLeg  34.3701 5.76978 3.97133
RightFoot  -3.96941 0.248115 -4.2619
RightToes  5.82063e-011 0 -3.6325e-017
Spine  29.8448 -2.18163 14.9182
Spine1  3.49466 3.02427 -9.82071
HEad  -16.9465 -13.9969 6.96918
LeftShoulder1  1.89255 -6.71503 -11.3495
LeftArm  -24.9402 -63.2071 -37.3874
LeftForeArm  1.16915 -18.4666 -3.11084
LeftHand  -0.00132389 6.12002 3.97189
RightShoulder  0.765791 3.60153 2.65041
RightArm  -26.3802 69.7688 23.799
RightForeArm  -25.1012 -0.257361 0.368863
RightHand  0.0277987 3.83221 0.0890704
LeftUpLeg  -33.4268 -14.4832 14.6164
LeftLeg  29.0294 -14.1236 -8.00474
LeftFoot  -4.56877 0.461227 -7.33417
LeftToes  1.54581e-011 7.46816e-011 -4.69922e-011
1004
root  -58.7301 37.7583 5.11442 167.999 -84.6286 -170.07
RightUpLeg  -27.3548 -6.18616 2.21252
RightLeg  35.5514 6.2149 4.48973
RightFoot  -5.05234 0.177207 -3.84256
RightToes  5.82063e-011 0 -3.6325e-017
Spine  30.0086 -1.65612 14.808
Spine1  3.85797 3.65295 -10.1204
HEad  -16.7189 -14.2876 7.62598
LeftShoulder1  1.89895 -6.96912 -10.9165
LeftArm  -24.9431 -63.2652 -36.1667
LeftForeArm  -4.58634 -16.7054 -2.59058
LeftHand  -0.016617 5.69306 3.79966
RightShoulder  0.753088 3.69571 2.3029
RightArm  -26.5115 70.9963 24.0142
RightForeArm  -26.5572 -1.28483 0.467128
RightHand  0.0705714 3.9976 0.601082
LeftUpLeg  -32.6755 -18.6785 16.9194
LeftLeg  23.273 -19.0386 -8.4825
LeftFoot  -5.29581 0.50412 -8.96409
LeftToes  1.54581e-011 7.46816e-011 -4.69922e-011
1005
root  -59.3208 37.7147 5.71304 171.395 -81.6313 -173.616
RightUpLeg  -27.1491 -3.88448 1.31521
RightLeg  36.7425 6.74535 5.11181
RightFoot  -5.93223 0.110676 -3.19085
RightToes  5.82063e-011 0 -3.6325e-017
Spine  30.0091 -1.48765 15.2681
Spine1  4.78272 4.34794 -11.1771
HEad  -16.534 -14.9232 8.45288
LeftShoulder1  1.85307 -6.99298 -10.3851
LeftArm  -25.5159 -62.4994 -34.8146
LeftForeArm  -8.81815 -16.0534 -2.38084
LeftHand  -0.0227906 5.60336 3.1041
RightShoulder  0.720755 3.54183 2.04336
RightArm  -25.6954 72.4207 25.2047
RightForeArm  -28.3762 -1.7225 0.76886
RightHand  0.0736746 4.61057 0.56425
LeftUpLeg  -31.2737 -18.8318 16.3357
LeftLeg  21.6594 -22.0831 -9.07961
LeftFoot  -5.01658 0.640791 -10.9745
LeftToes  1.54581e-011 7.46816e-011 -4.69922e-011
1006
root  -59.8559 37.7107 6.38817 173.751 -78.4755 -175.971
RightUpLeg  -26.9774 -1.42082 0.181562
RightLeg  37.2543 7.43069 5.7601
RightFoot  -6.5979 0.0516491 -2.33288
RightToes  5.82063e-011 0 -3.6325e-017
Spine  30.2584 -1.38745 15.4861
Spine1  5.16712 5.02047 -12.2331
HEad  -16.0596 -15.3091 8.77148
LeftShoulder1  1.8714 -6.98919 -10.585
LeftArm  -28.3283 -60.0565 -34.2324
LeftForeArm  -10.718 -17.3362 -2.64597
LeftHand  -0.0221246 5.77556 2.0362
RightShoulder  0.712614 3.56661 1.86888
RightArm  -24.3802 73.3635 26.9046
RightForeArm  -30.3322 -1.15723 1.13159
RightHand  0.0142562 5.3965 -0.150664
LeftUpLeg  -29.9406 -16.6532 13.9763
LeftLeg  22.9727 -23.0643 -10.0336
LeftFoot  -2.29308 0.8596 -10.717
LeftToes  1.54581e-011 7.46816e-011 -4.69922e-011
